<svg aria-hidden="true" style="position: absolute; width: 0; height: 0; overflow: hidden;" version="1.1" xmlns="http://www.w3.org/2000/svg" xmlns:xlink="http://www.w3.org/1999/xlink">
<defs>
<symbol id="icon-basket" viewBox="0 0 32 32">
<path d="M10.31 20.688h0.001c0.001 0 0.002-0 0.004-0h16.997c0.418 0 0.786-0.278 0.901-0.68l3.75-13.125c0.081-0.283 0.024-0.587-0.153-0.822s-0.454-0.373-0.748-0.373h-22.915l-0.67-3.016c-0.095-0.429-0.476-0.734-0.915-0.734h-5.625c-0.518 0-0.938 0.42-0.938 0.938s0.42 0.938 0.938 0.938h4.873c0.119 0.534 3.207 14.432 3.385 15.232-0.996 0.433-1.695 1.426-1.695 2.58 0 1.551 1.262 2.813 2.813 2.813h17c0.518 0 0.938-0.42 0.938-0.938s-0.42-0.938-0.938-0.938h-17c-0.517 0-0.938-0.421-0.938-0.938s0.419-0.936 0.935-0.937zM29.82 7.563l-3.214 11.25h-15.541l-2.5-11.25h21.255z"></path>
<path d="M9.375 27.25c0 1.551 1.262 2.812 2.813 2.812s2.812-1.262 2.812-2.812c0-1.551-1.262-2.813-2.812-2.813s-2.813 1.262-2.813 2.813zM12.188 26.313c0.517 0 0.938 0.421 0.938 0.938s-0.421 0.938-0.938 0.938c-0.517 0-0.938-0.421-0.938-0.938s0.421-0.938 0.938-0.938z"></path>
<path d="M22.625 27.25c0 1.551 1.262 2.812 2.813 2.812s2.812-1.262 2.812-2.812c0-1.551-1.262-2.813-2.812-2.813s-2.813 1.262-2.813 2.813zM25.438 26.313c0.517 0 0.938 0.421 0.938 0.938s-0.421 0.938-0.938 0.938c-0.517 0-0.938-0.421-0.938-0.938s0.421-0.938 0.938-0.938z"></path>
</symbol>
<symbol id="icon-logo" viewBox="0 0 37 32">
<path fill="#ff8126" style="fill: var(--color1, #ff8126)" d="M16.883 7.105l-15.121 3.924c-0.947 0.239-1.709 1.060-1.709 1.856l-0.053 6.575c0 0.769 0.763 1.591 1.709 1.829l15.042 3.765c0.947 0.239 2.472 0.239 3.419-0.026l15.121-3.897c0.947-0.239 1.709-1.060 1.709-1.856l0.053-6.575c0-0.769-0.763-1.591-1.709-1.829l-15.042-3.765c-0.947-0.239-2.472-0.239-3.419 0z"></path>
<path fill="#fff" style="fill: var(--color2, #fff)" d="M18.434 24.577c-0.605 0-1.183-0.053-1.604-0.159l-14.069-3.394c-0.999-0.239-1.788-1.087-1.788-1.909l0.053-5.912c0-0.822 0.789-1.67 1.815-1.935l14.122-3.526c0.447-0.106 1.052-0.186 1.709-0.186 0.605 0 1.183 0.053 1.604 0.159l14.043 3.367c0.999 0.239 1.788 1.087 1.788 1.909l-0.053 5.912c0 0.822-0.789 1.67-1.814 1.935l-14.122 3.553c-0.447 0.106-1.052 0.186-1.683 0.186zM18.618 8.086c-0.579 0-1.157 0.053-1.578 0.159l-14.095 3.526c-0.763 0.186-1.394 0.848-1.42 1.405l-0.026 5.939c0 0.583 0.631 1.22 1.394 1.405l14.043 3.367c0.394 0.106 0.92 0.159 1.499 0.159s1.157-0.053 1.578-0.159l14.121-3.526c0.763-0.186 1.394-0.848 1.394-1.405l0.053-5.912c0-0.583-0.631-1.22-1.394-1.405l-14.069-3.394c-0.394-0.106-0.92-0.159-1.499-0.159z"></path>
<path fill="#fff" style="fill: var(--color2, #fff)" d="M14.753 15.801c0.184-0.027 0.342-0.080 0.526-0.133 0.394-0.133 0.631-0.345 0.736-0.61 0.053-0.159 0.079-0.292 0.079-0.451 0-0.371-0.184-0.663-0.579-0.848-0.316-0.159-0.736-0.239-1.289-0.239-0.736 0-1.394 0.133-1.972 0.371-0.289 0.133-0.526 0.292-0.763 0.477-0.316 0.265-0.473 0.583-0.473 0.875 0 0.318 0.158 0.53 0.473 0.61 0.026 0 0.105 0 0.105-0.053v-0.053l-0.026-0.027c-0.053-0.053-0.105-0.080-0.131-0.106-0.053-0.080-0.079-0.159-0.079-0.265 0-0.159 0.105-0.371 0.342-0.61s0.5-0.424 0.763-0.557c0.526-0.239 1.131-0.371 1.788-0.371 0.421 0 0.736 0.053 0.973 0.186 0.263 0.133 0.394 0.318 0.394 0.61 0 0.106-0.026 0.239-0.079 0.371-0.079 0.212-0.237 0.371-0.526 0.477-0.21 0.080-0.473 0.133-0.736 0.133-0.053 0-0.132 0-0.237 0-0.026 0-0.053-0.027-0.079-0.027s-0.053-0.027-0.105-0.027c-0.158-0.053-0.316-0.027-0.394 0.080-0.026 0-0.053 0.027-0.053 0.080 0 0.133 0.184 0.159 0.342 0.186 0.184 0.027 0.316 0.053 0.394 0.053 0.158 0.053 0.316 0.159 0.421 0.292s0.158 0.265 0.158 0.398c0 0.133-0.026 0.265-0.105 0.398-0.158 0.292-0.368 0.53-0.684 0.716-0.289 0.186-0.605 0.292-0.894 0.292-0.473 0-0.841-0.239-1.078-0.689 0.394-0.371 0.842-0.875 1.289-1.511 0.053-0.080 0.289-0.318 0.631-0.663s0.579-0.557 0.71-0.61c0.21-0.027 0.237-0.133 0.237-0.212 0-0.053-0.026-0.133-0.105-0.186-0.132-0.080-0.316-0.080-0.5 0-0.237 0.080-0.684 0.583-1.394 1.511l-0.579 0.769c-0.158 0.239-0.316 0.424-0.421 0.53l-0.131-0.53c-0.079-0.239-0.184-0.345-0.342-0.345-0.053 0-0.105 0-0.184 0.026-0.158 0.080-0.316 0.265-0.526 0.61-0.184 0.345-0.289 0.636-0.289 0.875 0 0.265 0.079 0.424 0.237 0.504 0.184 0.106 0.526-0.053 1.026-0.477 0.263 0.424 0.736 0.663 1.394 0.663 0.447 0 0.894-0.106 1.315-0.318s0.71-0.477 0.868-0.795c0.079-0.133 0.105-0.292 0.105-0.477 0-0.265-0.105-0.504-0.289-0.689-0.079-0.106-0.184-0.186-0.263-0.212zM10.729 17.551c0-0.265 0.158-0.61 0.447-1.034 0.026 0.026 0.131 0.133 0.342 0.795-0.447 0.451-0.631 0.53-0.71 0.53-0.053-0.080-0.079-0.186-0.079-0.292z"></path>
<path fill="#fff" style="fill: var(--color2, #fff)" d="M27.244 15.96c-0.105 0-0.21 0.053-0.316 0.159-0.079 0.106-0.158 0.186-0.184 0.239-0.21 0.212-0.526 0.477-0.92 0.795-0.684 0.53-0.815 0.477-0.815 0.451 0-0.080 0.079-0.265 0.552-0.769 0.579-0.636 0.579-0.663 0.579-0.716 0-0.080-0.026-0.212-0.289-0.212-0.105 0-0.289 0.080-0.736 0.663-0.053 0.080-0.105 0.159-0.158 0.239-0.026 0.026-0.079 0.106-0.158 0.186-0.131 0.159-0.289 0.292-0.447 0.398-0.263 0.212-0.5 0.292-0.684 0.292-0.158 0-0.21-0.080-0.21-0.239 0-0.186 0.131-0.451 0.394-0.795l0.447-0.557v-0.026c0.026-0.053 0.026-0.106-0.053-0.186-0.053-0.053-0.105-0.080-0.158-0.080s-0.079 0-0.105 0.027l-0.158 0.106c-0.079 0.053-0.158 0.080-0.21 0.080-0.105 0-0.131-0.027-0.131-0.053l0.131-0.186c0.105-0.159 0.184-0.265 0.184-0.371 0-0.133-0.079-0.186-0.21-0.186-0.184 0-0.316 0.212-0.421 0.583-0.158 0.292-0.394 0.636-0.763 1.060-0.158 0.159-0.316 0.318-0.5 0.477-0.316 0.265-0.579 0.424-0.763 0.424s-0.237-0.080-0.237-0.265c0-0.106 0.026-0.186 0.053-0.292 0.026 0 0.026 0 0.053 0 0.237 0 0.526-0.106 0.92-0.345 0.368-0.239 0.579-0.477 0.579-0.742 0-0.106-0.026-0.186-0.105-0.239s-0.158-0.106-0.289-0.106c-0.316 0-0.657 0.212-1.052 0.61-0.263 0.265-0.421 0.53-0.5 0.742-0.131 0.133-0.263 0.239-0.368 0.318-0.21 0.159-0.394 0.239-0.526 0.239-0.237 0-0.421-0.239-0.526-0.742 0.105 0.053 0.237 0.080 0.447 0.080s0.473-0.080 0.71-0.212c0.316-0.159 0.5-0.398 0.552-0.663v-0.026c0-0.106-0.053-0.212-0.158-0.318-0.105-0.133-0.237-0.186-0.394-0.186-0.184 0-0.421 0.053-0.736 0.186 0.079-0.106 0.184-0.239 0.342-0.424 0.447-0.557 0.447-0.583 0.447-0.61 0-0.080-0.053-0.159-0.263-0.159-0.079 0-0.105 0-0.131 0.027-0.21 0.159-0.579 0.636-1.131 1.485-0.105 0.186-0.21 0.318-0.289 0.477-0.71 0.875-0.999 1.060-1.157 1.060-0.026 0-0.053 0-0.079-0.106 0 0 0 0 0-0.026 0-0.106 0.079-0.318 0.394-0.769 0.394-0.61 0.394-0.636 0.394-0.663 0-0.053-0.026-0.080-0.079-0.133s-0.105-0.080-0.184-0.080h-0.026l-0.026-0.080c-0.158-0.106-0.289-0.159-0.447-0.159-0.368 0-0.789 0.239-1.236 0.663-0.447 0.451-0.657 0.822-0.657 1.167 0 0.159 0.079 0.292 0.21 0.398 0.105 0.080 0.237 0.133 0.368 0.133s0.316-0.106 0.579-0.345l0.263-0.265v0.026c0 0.239 0.105 0.398 0.316 0.477s0.473-0.026 0.789-0.345c-0.026 0.053-0.026 0.080-0.026 0.106 0 0.133 0.079 0.239 0.263 0.318l0.053 0.026 0.026-0.053c0.158-0.292 0.263-0.53 0.342-0.636 0.237 0.477 0.526 0.716 0.868 0.716 0.237 0 0.5-0.133 0.842-0.371 0.026-0.026 0.079-0.053 0.105-0.080 0.026 0.212 0.158 0.371 0.447 0.451 0.053 0.026 0.105 0.026 0.158 0.026 0.237 0 0.526-0.133 0.868-0.371 0.316-0.212 0.579-0.477 0.789-0.769 0.053-0.053 0.105-0.133 0.158-0.212l0.421-0.53c0.053 0.080 0.131 0.133 0.21 0.159-0.079 0.133-0.158 0.265-0.237 0.451-0.105 0.212-0.158 0.424-0.158 0.61 0 0.504 0.289 0.61 0.552 0.61 0.237 0 0.526-0.133 0.868-0.398 0.053-0.026 0.105-0.080 0.131-0.106 0 0.026 0 0.026 0 0.053 0 0.106 0.026 0.186 0.105 0.265 0.184 0.212 0.526 0.133 0.999-0.239l0.736-0.583-0.158 0.345c-0.184 0.424-0.394 0.795-0.579 1.060-0.263 0.371-0.5 0.557-0.736 0.557-0.131 0-0.289-0.133-0.473-0.371l-0.105-0.133v0.186c0 0.159 0.053 0.318 0.158 0.451s0.263 0.212 0.394 0.212c0.421 0 0.868-0.345 1.289-1.034 0.289-0.504 0.473-0.875 0.605-1.113 0-0.026 0.053-0.106 0.289-0.451 0.289-0.451 0.289-0.477 0.289-0.504 0-0.159-0.079-0.239-0.21-0.239zM19.407 16.199c0.316-0.186 0.579-0.292 0.789-0.292 0.026 0 0.053 0 0.079 0.027s0.026 0.027 0.026 0.053c0 0.186-0.158 0.345-0.5 0.504-0.289 0.159-0.552 0.239-0.71 0.239-0.105 0-0.158 0-0.21-0.027 0.079-0.159 0.263-0.345 0.526-0.504zM21.643 16.703c-0.237 0.159-0.447 0.239-0.579 0.239 0.131-0.212 0.316-0.398 0.552-0.583s0.368-0.239 0.421-0.239c0.079 0 0.105 0 0.105 0v0.026c-0.079 0.212-0.237 0.398-0.5 0.557zM15.831 17.551c0-0.239 0.21-0.557 0.631-0.954s0.736-0.583 0.973-0.583c0.053 0 0.079 0 0.079 0.026l-0.631 0.901c-0.5 0.663-0.789 0.795-0.947 0.795-0.053-0.026-0.105-0.026-0.105-0.186z"></path>
<path fill="#605656" style="fill: var(--color3, #605656)" d="M9.546 5.408c0-0.027-0.026-0.027-0.053-0.027s-0.026 0-0.053 0l-0.21 0.133-0.394-0.636 0.053-0.027c0.158-0.106 0.263-0.212 0.394-0.318 0.105-0.106 0.184-0.239 0.237-0.371s0.079-0.292 0.053-0.424c-0.026-0.159-0.079-0.318-0.184-0.477-0.079-0.133-0.184-0.239-0.289-0.318s-0.237-0.133-0.368-0.159c-0.132-0.026-0.263-0.026-0.394 0s-0.263 0.080-0.394 0.159c-0.158 0.106-0.289 0.186-0.421 0.292s-0.289 0.186-0.421 0.292c-0.026 0-0.026 0.026-0.026 0.053s0 0.026 0 0.053l0.263 0.371c0.026 0.027 0.053 0.027 0.079 0.027l0.158-0.106 1.236 1.935-0.184 0.106c-0.026 0-0.026 0.027-0.026 0.053s0 0.027 0 0.053l0.237 0.345c0 0.027 0.026 0.027 0.053 0.027h0.026l0.789-0.53c0.026-0.027 0.026-0.053 0.026-0.080l-0.184-0.424zM8.021 3.553l0.237-0.159c0.053-0.027 0.132-0.053 0.184-0.080 0.053 0 0.132 0 0.184 0s0.105 0.026 0.158 0.080c0.053 0.026 0.105 0.080 0.132 0.133 0.079 0.106 0.105 0.186 0.105 0.265s0 0.159-0.053 0.212c-0.026 0.080-0.079 0.133-0.158 0.186s-0.158 0.133-0.237 0.186l-0.026 0.027-0.526-0.848z"></path>
<path fill="#605656" style="fill: var(--color3, #605656)" d="M13.149 3.579c-0.026 0-0.026 0-0.053 0l-0.263 0.106-0.631-0.769c0.079-0.053 0.131-0.133 0.158-0.186 0.053-0.080 0.079-0.186 0.105-0.292s0.026-0.212 0.026-0.318-0.026-0.212-0.079-0.318c-0.053-0.159-0.131-0.265-0.237-0.371-0.105-0.080-0.21-0.159-0.316-0.186-0.132-0.026-0.237-0.053-0.394-0.053-0.131 0-0.263 0.053-0.394 0.106-0.158 0.053-0.316 0.133-0.473 0.186-0.158 0.080-0.316 0.133-0.473 0.212-0.026 0-0.026 0.026-0.026 0.026 0 0.026 0 0.026 0 0.053l0.184 0.398c0.026 0.026 0.053 0.053 0.079 0.026l0.184-0.080 0.868 2.174-0.184 0.080c-0.026 0-0.026 0.027-0.026 0.027 0 0.027 0 0.027 0 0.053l0.184 0.371c0 0.027 0.026 0.027 0.053 0.027h0.026l0.815-0.318c0.026 0 0.053-0.053 0.026-0.080l-0.132-0.424c0-0.027-0.026-0.027-0.026-0.027-0.026 0-0.026 0-0.053 0l-0.184 0.080-0.342-0.822 0.184-0.080 0.605 0.795-0.079 0.027c-0.026 0-0.026 0.027-0.026 0.027 0 0.027 0 0.027 0 0.053l0.21 0.371c0.026 0.027 0.053 0.053 0.079 0.027l0.736-0.371c0.026-0.027 0.053-0.053 0.026-0.080l-0.132-0.424-0.026-0.026zM11.413 2.757l-0.053 0.026-0.316-0.848 0.289-0.106c0.053-0.026 0.131-0.053 0.184-0.053s0.105 0 0.158 0.026c0.053 0.026 0.105 0.053 0.131 0.080 0.053 0.026 0.079 0.080 0.105 0.159 0.053 0.106 0.053 0.186 0.053 0.265-0.026 0.080-0.053 0.133-0.079 0.186-0.053 0.053-0.105 0.106-0.184 0.133-0.105 0.053-0.21 0.106-0.289 0.133z"></path>
<path fill="#605656" style="fill: var(--color3, #605656)" d="M15.831 2.466l-0.316 0.080c-0.026 0-0.026 0.026-0.053 0.026 0 0.026 0 0.026 0 0.053l0.079 0.451-0.71 0.159-0.158-0.875 0.631-0.159c0.026 0 0.053-0.053 0.053-0.080l-0.053-0.318c-0.053-0.053-0.053-0.053-0.053-0.080-0.026 0-0.026 0-0.053 0l-0.631 0.133-0.158-0.875 0.684-0.186 0.132 0.398c0 0.026 0.053 0.053 0.079 0.053l0.342-0.080c0.026 0 0.053-0.053 0.053-0.080l-0.21-0.875c0-0.026-0.053-0.053-0.079-0.053l-1.841 0.398c-0.026 0-0.053 0.053-0.053 0.080l0.053 0.424c0 0.026 0 0.026 0.026 0.053 0.026 0 0.026 0.026 0.053 0l0.21-0.053 0.447 2.254-0.21 0.053c-0.026 0-0.026 0.027-0.053 0.027 0 0.026 0 0.026 0 0.053l0.105 0.424c0 0.026 0.026 0.053 0.053 0.053 0 0 0 0 0.026 0l1.841-0.424c0.026 0 0.026-0.026 0.053-0.026 0-0.026 0-0.026 0-0.053l-0.21-0.901c0-0.026-0.026-0.053-0.079-0.053z"></path>
<path fill="#605656" style="fill: var(--color3, #605656)" d="M20.065 0h-0.999c-0.026 0-0.053 0.026-0.053 0.053l-0.526 2.015-0.289-1.988c0-0.026-0.026-0.053-0.053-0.053l-1.157-0.026c-0.026 0-0.053 0.026-0.079 0.053l-0.026 0.424c0 0.026 0.026 0.053 0.053 0.080l0.342 0.026-0.053 2.227h-0.316c-0.026 0-0.026 0-0.053 0.026 0 0-0.026 0.026-0.026 0.053v0.424c0 0.026 0.026 0.053 0.053 0.080l1.078 0.053c0.026 0 0.026 0 0.053-0.026s0.026-0.026 0.026-0.053v-0.424c0-0.026-0.026-0.053-0.053-0.053h-0.21l0.053-1.432 0.289 1.776c0 0.026 0.026 0.053 0.053 0.053h0.447c0.026 0 0.053-0.026 0.053-0.053l0.526-1.935-0.026 1.564h-0.21c-0.026 0-0.053 0.026-0.079 0.053l-0.026 0.451c0 0.027 0 0.027 0.026 0.053 0 0 0.026 0.026 0.053 0.026l0.947 0.026c0.026 0 0.026 0 0.053-0.026 0 0 0.026-0.026 0.026-0.053v-0.451c0-0.026-0.026-0.053-0.053-0.053h-0.158l0.079-2.307 0.237 0.026c0.026 0 0.026 0 0.053-0.026 0.026 0 0.026-0.026 0.026-0.053l0.026-0.451c0-0.026 0-0.026-0.026-0.053-0.053-0.026-0.079-0.026-0.079-0.026z"></path>
<path fill="#605656" style="fill: var(--color3, #605656)" d="M22.484 0.504l-0.894-0.186c-0.026 0-0.079 0.027-0.079 0.053l-0.105 0.424c0 0.026 0 0.026 0 0.053s0.026 0.026 0.053 0.026l0.21 0.026-0.447 2.2-0.21-0.053c-0.026 0-0.026 0-0.053 0s-0.026 0.026-0.026 0.053l-0.079 0.424c0 0.026 0.026 0.080 0.053 0.080l0.92 0.186c0.026 0 0.053-0.026 0.053-0.053l0.105-0.398c0-0.026 0-0.026 0-0.053s-0.026-0.026-0.053-0.026l-0.263-0.053 0.473-2.2 0.263 0.053c0.026 0 0.026 0 0.053-0.026 0.026 0 0.026-0.026 0.026-0.053l0.053-0.424c0-0.026-0.026-0.053-0.053-0.053z"></path>
<path fill="#605656" style="fill: var(--color3, #605656)" d="M26.008 2.174c0.026 0 0.079 0 0.079-0.053l0.131-0.398c0-0.026 0-0.080-0.026-0.080l-0.868-0.318c-0.026 0-0.079 0-0.079 0.026l-0.184 0.424c0 0.026 0 0.026 0 0.053s0.026 0.026 0.026 0.026l0.21 0.080-0.421 1.087c-0.026 0.053-0.053 0.133-0.079 0.212s-0.079 0.159-0.105 0.265c-0.053 0.080-0.079 0.159-0.131 0.239s-0.105 0.133-0.158 0.186c-0.053 0.053-0.105 0.080-0.184 0.106-0.053 0.027-0.131 0-0.21-0.027-0.053-0.026-0.105-0.053-0.131-0.106s-0.053-0.106-0.053-0.159 0-0.133 0-0.212c0-0.080 0.026-0.159 0.053-0.212 0.026-0.080 0.053-0.133 0.053-0.212 0.026-0.080 0.053-0.133 0.079-0.186 0.079-0.239 0.184-0.451 0.263-0.663s0.184-0.398 0.263-0.61l0.21 0.053c0.026 0 0.026 0 0.053 0s0.026-0.026 0.026-0.026l0.105-0.398c0-0.026 0-0.080-0.053-0.080l-0.841-0.318c-0.026 0-0.079 0-0.079 0.026l-0.237 0.424c0 0.026 0 0.026 0 0.053s0.026 0.026 0.026 0.026l0.21 0.080c-0.079 0.186-0.158 0.371-0.237 0.557-0.079 0.212-0.184 0.424-0.263 0.636-0.026 0.080-0.079 0.186-0.105 0.318-0.026 0.106-0.053 0.239-0.079 0.345-0.026 0.133-0.026 0.239-0.026 0.345 0 0.133 0.026 0.239 0.053 0.345s0.079 0.212 0.158 0.292c0.079 0.080 0.184 0.159 0.316 0.212s0.237 0.080 0.342 0.080c0.026 0 0.053 0 0.079 0 0.131-0.027 0.237-0.053 0.368-0.106 0.105-0.053 0.21-0.133 0.289-0.239s0.158-0.212 0.237-0.318c0.079-0.106 0.131-0.239 0.184-0.371s0.105-0.239 0.158-0.345l0.394-1.114 0.184 0.053z"></path>
<path fill="#605656" style="fill: var(--color3, #605656)" d="M30.137 4.136l-0.841-0.557c-0.026-0.026-0.053-0.026-0.079 0l-1.525 1.405 0.815-1.829c0.026-0.026 0-0.053-0.026-0.080l-0.92-0.636c-0.026-0.026-0.079 0-0.079 0.026l-0.237 0.345c-0.026 0.026-0.026 0.080 0.026 0.080l0.263 0.212-1.262 1.829-0.237-0.159c-0.026 0-0.026-0.027-0.053 0-0.026 0-0.026 0.027-0.053 0.027l-0.237 0.345c-0.026 0.027 0 0.080 0.026 0.080l0.868 0.61c0.026 0 0.026 0.027 0.053 0 0.026 0 0.026-0.027 0.053-0.027l0.237-0.371c0.026-0.027 0-0.080-0.026-0.080l-0.158-0.106 0.815-1.193-0.71 1.644c0 0.027 0 0.053 0.026 0.080l0.394 0.239c0.026 0.027 0.053 0 0.079 0l1.394-1.273-0.894 1.299-0.184-0.133c-0.026-0.027-0.079 0-0.079 0.027l-0.263 0.371c0 0.027-0.026 0.027 0 0.053 0 0.027 0.026 0.027 0.026 0.053l0.789 0.53h0.026c0.026 0 0.026-0.027 0.053-0.027l0.237-0.371c0.026-0.027 0-0.080-0.026-0.080l-0.131-0.106 1.315-1.909 0.184 0.133c0.026 0 0.026 0.027 0.053 0 0.026 0 0.026 0 0.053-0.027l0.263-0.371c0-0.027 0.026-0.027 0-0.053 0 0.027-0.026 0.027-0.026 0z"></path>
<path fill="#605656" style="fill: var(--color3, #605656)" d="M11.676 25.929c-0.132-0.106-0.263-0.186-0.421-0.212-0.132-0.026-0.263-0.026-0.394 0s-0.263 0.080-0.368 0.159c-0.132 0.080-0.237 0.159-0.342 0.265s-0.21 0.186-0.316 0.318c-0.105 0.106-0.184 0.212-0.263 0.318-0.053 0.080-0.131 0.186-0.184 0.265-0.053 0.106-0.131 0.212-0.184 0.318s-0.105 0.239-0.131 0.345c-0.026 0.133-0.053 0.239-0.053 0.345s0.026 0.239 0.079 0.345c0.053 0.106 0.131 0.212 0.237 0.292 0.026 0.026 0.079 0.053 0.105 0.080s0.053 0.026 0.079 0.053c0 0.106-0.026 0.186-0.026 0.292s0 0.239 0.026 0.345c0 0.026 0.026 0.053 0.053 0.053l0.473-0.080c0.026 0 0.026-0.026 0.053-0.026 0-0.026 0-0.026 0-0.053-0.026-0.053-0.053-0.133-0.053-0.212 0-0.053-0.026-0.133-0.026-0.186 0.079 0 0.158-0.026 0.21-0.053 0.105-0.026 0.184-0.080 0.263-0.133s0.158-0.106 0.263-0.186c0.079-0.080 0.158-0.133 0.237-0.212s0.131-0.159 0.21-0.239c0.053-0.080 0.132-0.159 0.184-0.212 0.053-0.080 0.132-0.186 0.184-0.265 0.079-0.106 0.132-0.212 0.184-0.318s0.105-0.239 0.131-0.345c0.026-0.133 0.053-0.239 0.053-0.371s-0.026-0.239-0.079-0.345c0-0.159-0.079-0.265-0.184-0.345zM9.651 28.156c0-0.026 0 0 0 0-0.026-0.080-0.053-0.106-0.053-0.159s0-0.080 0-0.133c0 0.053 0.026 0.080 0.026 0.133 0.026 0.053 0.026 0.106 0.026 0.159zM10.151 27.785c-0.026-0.106-0.053-0.186-0.105-0.292-0.053-0.080-0.079-0.159-0.158-0.212 0-0.026 0.026-0.026 0.026-0.053l0.079-0.080c0.053-0.053 0.105-0.133 0.158-0.212s0.132-0.159 0.21-0.239 0.158-0.159 0.237-0.212c0.079-0.080 0.158-0.133 0.237-0.159 0.158-0.080 0.289-0.080 0.447 0.026 0.053 0.053 0.079 0.080 0.105 0.159 0.026 0.053 0.026 0.133 0 0.212s-0.026 0.159-0.079 0.239c-0.026 0.080-0.079 0.159-0.131 0.239s-0.105 0.159-0.132 0.212c-0.053 0.080-0.079 0.133-0.131 0.159-0.053 0.053-0.105 0.133-0.184 0.212s-0.132 0.159-0.21 0.239c-0.079 0.080-0.158 0.133-0.237 0.186-0.053 0.026-0.079 0.053-0.132 0.080 0.026-0.080 0.026-0.133 0.026-0.186 0-0.106 0-0.212-0.026-0.318z"></path>
<path fill="#605656" style="fill: var(--color3, #605656)" d="M15.173 27.891l-0.841-0.371c-0.026-0.026-0.079 0-0.079 0.026l-0.21 0.398c0 0.027 0 0.027 0 0.053s0.026 0.026 0.026 0.026l0.21 0.080-0.473 1.060c-0.026 0.053-0.053 0.133-0.105 0.212-0.026 0.080-0.079 0.159-0.131 0.239s-0.105 0.159-0.158 0.239c-0.053 0.080-0.105 0.133-0.184 0.186-0.053 0.053-0.132 0.080-0.184 0.080-0.053 0.026-0.131 0-0.21-0.026-0.053-0.027-0.105-0.053-0.131-0.106s-0.053-0.106-0.053-0.159c0-0.053 0-0.133 0-0.212s0.026-0.159 0.053-0.212c0.026-0.080 0.053-0.133 0.079-0.212s0.053-0.133 0.079-0.186c0.105-0.212 0.21-0.424 0.316-0.636 0.105-0.186 0.184-0.398 0.289-0.583l0.21 0.080c0.026 0 0.026 0 0.053 0s0.026-0.026 0.026-0.026l0.131-0.398c0-0.026 0-0.080-0.026-0.080l-0.842-0.371c-0.026-0.026-0.079 0-0.079 0.026l-0.21 0.398c0 0.026 0 0.026 0 0.053s0.026 0.026 0.026 0.026l0.21 0.080c-0.079 0.186-0.184 0.371-0.263 0.557-0.105 0.212-0.21 0.424-0.289 0.636-0.053 0.080-0.079 0.186-0.131 0.292s-0.079 0.239-0.105 0.345c-0.026 0.133-0.053 0.239-0.053 0.345 0 0.133 0 0.239 0.026 0.345s0.079 0.212 0.158 0.292c0.079 0.080 0.184 0.159 0.289 0.212 0.132 0.053 0.263 0.080 0.368 0.080h0.026c0.131 0 0.263-0.053 0.368-0.106s0.21-0.133 0.316-0.239c0.079-0.106 0.184-0.212 0.237-0.318 0.079-0.106 0.131-0.239 0.21-0.345 0.053-0.133 0.105-0.239 0.158-0.345l0.473-1.087 0.184 0.080c0.026 0 0.079-0 0.079-0.053l0.132-0.398c0.053 0.080 0.053 0.026 0.026 0.026z"></path>
<path fill="#605656" style="fill: var(--color3, #605656)" d="M17.435 31.417l-0.237-0.053-0.053-2.492 0.158 0.026c0.026 0 0.053-0.026 0.079-0.053l0.079-0.371c0-0.026 0-0.026 0-0.053s-0.026-0.026-0.053-0.026l-1.157-0.186c-0.026 0-0.026 0-0.053 0s-0.026 0.026-0.026 0.053l-0.053 0.398c0 0.026 0.026 0.080 0.053 0.080l0.158 0.026-0.894 2.227-0.237-0.053c-0.026 0-0.026 0-0.053 0s-0.026 0.026-0.026 0.053l-0.053 0.451c0 0.027 0.026 0.080 0.053 0.080l0.92 0.186c0.026 0 0.079-0.026 0.079-0.053l0.105-0.398c0-0.026 0-0.026 0-0.053s-0.026-0.026-0.053-0.026l-0.184-0.053 0.158-0.451 0.5 0.080v0.557l-0.21-0.053c-0.026 0-0.026 0-0.053 0s-0.026 0.026-0.026 0.053l-0.053 0.451c0 0.027 0.026 0.080 0.053 0.080l0.92 0.186c0 0 0 0 0.026 0s0.053-0.026 0.053-0.053l0.105-0.424c0.026-0.080 0.026-0.106-0.026-0.133zM16.699 29.216v0.981l-0.316-0.053 0.316-0.928z"></path>
<path fill="#605656" style="fill: var(--color3, #605656)" d="M20.591 30.86h-0.394c-0.026 0-0.026 0-0.053 0.026 0 0-0.026 0.026-0.026 0.053v0.451h-0.631l-0.053-2.253 0.263-0.026c0.026 0 0.053-0.026 0.053-0.080v-0.424c0-0.026-0.026-0.053-0.079-0.053l-0.999 0.026c-0.026 0-0.053 0.026-0.053 0.080v0.424c0 0.026 0 0.026 0.026 0.053 0 0 0.026 0.026 0.053 0.026h0.21l0.053 2.253h-0.21c-0.026 0-0.026 0-0.053 0.026 0 0.027-0.026 0.027-0.026 0.053l0.026 0.451c0 0.026 0.026 0.053 0.053 0.053l1.814-0.026c0.026 0 0.053-0.026 0.053-0.080v-0.954c0.026-0.026 0-0.080-0.026-0.080z"></path>
<path fill="#605656" style="fill: var(--color3, #605656)" d="M22.931 30.94c-0.026 0-0.026-0.026-0.053 0l-0.237 0.053-0.447-2.201 0.21-0.053c0.026 0 0.026-0.026 0.026-0.026 0-0.026 0-0.026 0-0.053l-0.131-0.398c0-0.026-0.053-0.053-0.079-0.053l-0.894 0.186c-0.026 0-0.053 0.053-0.053 0.080l0.079 0.451c0 0.026 0.026 0.026 0.026 0.053 0.026 0 0.026 0 0.053 0l0.21-0.053 0.473 2.201-0.21 0.053c-0.026 0-0.026 0.026-0.053 0.026 0 0.026 0 0.026 0 0.053l0.105 0.424c0 0.026 0.026 0.053 0.053 0.053 0 0 0 0 0.026 0l0.92-0.239c0.026 0 0.053-0.053 0.053-0.080l-0.079-0.424c0.026-0.026 0-0.053 0-0.053z"></path>
<path fill="#605656" style="fill: var(--color3, #605656)" d="M25.587 29.985c-0.026 0-0.026 0-0.053 0l-0.237 0.106-0.868-2.147 0.237-0.106 0.237 0.504c0 0.026 0.026 0.026 0.053 0.026s0.026 0 0.053 0l0.316-0.186c0.026-0.026 0.053-0.053 0.026-0.080l-0.447-0.901c-0.026-0.026-0.053-0.053-0.079-0.026l-1.709 0.795c-0.026 0.026-0.053 0.053-0.026 0.080l0.368 0.928c0 0.026 0.026 0.026 0.026 0.026 0.026 0 0.026 0 0.053 0l0.342-0.159c0.026 0 0.026-0.026 0.026-0.026 0-0.026 0-0.026 0-0.053l-0.21-0.477 0.263-0.133 0.894 2.094-0.184 0.080c-0.026 0-0.026 0.026-0.026 0.026 0 0.026 0 0.026 0 0.053l0.184 0.398c0 0.026 0.026 0.026 0.053 0.026h0.026l0.868-0.398c0.026-0.026 0.053-0.053 0.026-0.080l-0.131-0.398c-0.053 0.026-0.079 0.026-0.079 0.026z"></path>
<path fill="#605656" style="fill: var(--color3, #605656)" d="M28.664 28.633l-0.21-0.345c0-0.027-0.026-0.027-0.053-0.027s-0.026 0-0.053 0l-0.21 0.159-0.394-0.557-0.394-1.67 0.184-0.159c0.026-0.026 0.026-0.053 0-0.106l-0.289-0.345c-0.026-0.026-0.053-0.026-0.079 0l-0.763 0.557c-0.026 0.026-0.026 0.053-0.026 0.080l0.237 0.371c0 0.026 0.026 0.026 0.053 0.026s0.026 0 0.053 0l0.158-0.106 0.289 1.007-0.815-0.636 0.131-0.133c0.026 0 0.026-0.026 0.026-0.053s0-0.026-0.026-0.053l-0.263-0.318c-0.026-0.026-0.053-0.026-0.079 0l-0.763 0.557c-0.026 0.026-0.026 0.053-0.026 0.080l0.237 0.371c0 0.026 0.026 0.026 0.053 0.026s0.026 0 0.053 0l0.184-0.159 1.394 0.928 0.394 0.557-0.158 0.133c-0.026 0-0.026 0.026-0.026 0.053s0 0.026 0 0.053l0.263 0.345c0 0.026 0.026 0.026 0.053 0.026s0.026 0 0.053 0l0.763-0.583c0.079-0.026 0.079-0.053 0.053-0.080z"></path>
<path fill="#fff" style="fill: var(--color2, #fff)" d="M4.155 19.99c0.053 0 0.105 0 0.158 0.026v-6.204c0.105-0.159 0.237-0.451 0.237-0.769 0-0.504-0.316-0.901-0.316-0.901s-0.316 0.398-0.316 0.901c0 0.318 0.131 0.61 0.237 0.769v0.53c-0.053-0.159-0.131-0.371-0.289-0.557-0.342-0.371-0.841-0.451-0.841-0.451s0.026 0.504 0.368 0.875c0.263 0.292 0.631 0.398 0.763 0.424v0.663c-0.053-0.159-0.131-0.398-0.289-0.557-0.342-0.371-0.841-0.451-0.841-0.451s0.026 0.504 0.368 0.875c0.263 0.292 0.631 0.398 0.763 0.424v0.663c-0.053-0.159-0.131-0.398-0.289-0.557-0.342-0.371-0.841-0.451-0.841-0.451s0.026 0.504 0.368 0.875c0.263 0.292 0.631 0.398 0.763 0.424v0.663c-0.053-0.159-0.131-0.398-0.289-0.557-0.342-0.371-0.841-0.451-0.841-0.451s0.026 0.504 0.368 0.875c0.263 0.292 0.631 0.398 0.763 0.424v0.663c-0.053-0.159-0.131-0.398-0.289-0.557-0.342-0.371-0.841-0.451-0.841-0.451s0.026 0.504 0.368 0.875c0.263 0.292 0.631 0.398 0.763 0.424v0.636c-0.053-0.159-0.131-0.398-0.289-0.557-0.342-0.371-0.841-0.451-0.841-0.451s0.026 0.504 0.368 0.875c0.263 0.292 0.631 0.398 0.763 0.424v0.61z"></path>
<path fill="#fff" style="fill: var(--color2, #fff)" d="M5.154 18.983c0.342-0.371 0.368-0.875 0.368-0.875s-0.5 0.080-0.841 0.451c-0.342 0.371-0.368 0.875-0.368 0.875s0.526-0.106 0.841-0.451z"></path>
<path fill="#fff" style="fill: var(--color2, #fff)" d="M5.154 18.028c0.342-0.371 0.368-0.875 0.368-0.875s-0.5 0.080-0.841 0.451c-0.342 0.371-0.368 0.875-0.368 0.875s0.526-0.106 0.841-0.451z"></path>
<path fill="#fff" style="fill: var(--color2, #fff)" d="M5.154 17.074c0.342-0.371 0.368-0.875 0.368-0.875s-0.5 0.080-0.841 0.451c-0.342 0.371-0.368 0.875-0.368 0.875s0.526-0.106 0.841-0.451z"></path>
<path fill="#fff" style="fill: var(--color2, #fff)" d="M5.154 16.119c0.342-0.371 0.368-0.875 0.368-0.875s-0.5 0.080-0.841 0.451c-0.342 0.371-0.368 0.875-0.368 0.875s0.526-0.080 0.841-0.451z"></path>
<path fill="#fff" style="fill: var(--color2, #fff)" d="M5.154 15.165c0.342-0.371 0.368-0.875 0.368-0.875s-0.5 0.080-0.841 0.451c-0.342 0.371-0.368 0.875-0.368 0.875s0.526-0.080 0.841-0.451z"></path>
<path fill="#fff" style="fill: var(--color2, #fff)" d="M5.154 14.21c0.342-0.371 0.368-0.875 0.368-0.875s-0.5 0.080-0.841 0.451c-0.342 0.371-0.368 0.875-0.368 0.875s0.526-0.080 0.841-0.451z"></path>
<path fill="#fff" style="fill: var(--color2, #fff)" d="M32.661 19.99c0.053 0 0.105 0 0.158 0.026v-6.204c0.105-0.159 0.237-0.451 0.237-0.769 0-0.504-0.316-0.901-0.316-0.901s-0.316 0.398-0.316 0.901c0 0.318 0.131 0.61 0.237 0.769v0.53c-0.053-0.159-0.132-0.371-0.289-0.557-0.342-0.371-0.841-0.451-0.841-0.451s0.026 0.504 0.368 0.875c0.263 0.292 0.631 0.398 0.763 0.424v0.663c-0.053-0.159-0.132-0.398-0.289-0.557-0.342-0.371-0.841-0.451-0.841-0.451s0.026 0.504 0.368 0.875c0.263 0.292 0.631 0.398 0.763 0.424v0.663c-0.053-0.159-0.132-0.398-0.289-0.557-0.342-0.371-0.841-0.451-0.841-0.451s0.026 0.504 0.368 0.875c0.263 0.292 0.631 0.398 0.763 0.424v0.663c-0.053-0.159-0.132-0.398-0.289-0.557-0.342-0.371-0.841-0.451-0.841-0.451s0.026 0.504 0.368 0.875c0.263 0.292 0.631 0.398 0.763 0.424v0.663c-0.053-0.159-0.132-0.398-0.289-0.557-0.342-0.371-0.841-0.451-0.841-0.451s0.026 0.504 0.368 0.875c0.263 0.292 0.631 0.398 0.763 0.424v0.636c-0.053-0.159-0.132-0.398-0.289-0.557-0.342-0.371-0.841-0.451-0.841-0.451s0.026 0.504 0.368 0.875c0.263 0.292 0.631 0.398 0.763 0.424v0.61z"></path>
<path fill="#fff" style="fill: var(--color2, #fff)" d="M33.66 18.983c0.342-0.371 0.368-0.875 0.368-0.875s-0.5 0.080-0.842 0.451c-0.342 0.371-0.368 0.875-0.368 0.875s0.526-0.106 0.842-0.451z"></path>
<path fill="#fff" style="fill: var(--color2, #fff)" d="M33.66 18.028c0.342-0.371 0.368-0.875 0.368-0.875s-0.5 0.080-0.842 0.451c-0.342 0.371-0.368 0.875-0.368 0.875s0.526-0.106 0.842-0.451z"></path>
<path fill="#fff" style="fill: var(--color2, #fff)" d="M33.66 17.074c0.342-0.371 0.368-0.875 0.368-0.875s-0.5 0.080-0.842 0.451c-0.342 0.371-0.368 0.875-0.368 0.875s0.526-0.106 0.842-0.451z"></path>
<path fill="#fff" style="fill: var(--color2, #fff)" d="M33.66 16.119c0.342-0.371 0.368-0.875 0.368-0.875s-0.5 0.080-0.842 0.451c-0.342 0.371-0.368 0.875-0.368 0.875s0.526-0.080 0.842-0.451z"></path>
<path fill="#fff" style="fill: var(--color2, #fff)" d="M33.66 15.165c0.342-0.371 0.368-0.875 0.368-0.875s-0.5 0.080-0.842 0.451c-0.342 0.371-0.368 0.875-0.368 0.875s0.526-0.080 0.842-0.451z"></path>
<path fill="#fff" style="fill: var(--color2, #fff)" d="M33.66 14.21c0.342-0.371 0.368-0.875 0.368-0.875s-0.5 0.080-0.842 0.451c-0.342 0.371-0.368 0.875-0.368 0.875s0.526-0.080 0.842-0.451z"></path>
</symbol>
<symbol id="icon-user" viewBox="0 0 32 32">
<path stroke-linejoin="miter" stroke-linecap="butt" stroke-miterlimit="4" stroke-width="0.4267" d="M19.357 13.313c2.019 0.651 3.845 1.893 5.321 3.647 2.285 2.716 3.536 6.461 3.536 10.54 0 0.123-0.032 0.244-0.093 0.351s-0.148 0.197-0.254 0.26v0c-0.221 0.132-5.246 3.102-11.867 3.102-6.114 0-11.607-2.959-11.842-3.087l15.199-14.813zM19.357 13.313c1.158-0.669 2.094-1.67 2.681-2.88 0.666-1.37 0.846-2.926 0.51-4.412s-1.167-2.814-2.357-3.765c-1.19-0.951-2.668-1.47-4.192-1.47s-3.002 0.518-4.192 1.47c-1.19 0.951-2.021 2.279-2.357 3.765s-0.156 3.042 0.51 4.412c0.588 1.21 1.523 2.211 2.681 2.88h6.714zM10.713 7.5c0-1.045 0.31-2.068 0.891-2.937s1.407-1.547 2.373-1.947c0.966-0.4 2.029-0.505 3.055-0.301s1.968 0.708 2.707 1.447c0.739 0.739 1.243 1.681 1.447 2.707s0.099 2.088-0.301 3.055-1.078 1.792-1.947 2.373c-0.869 0.581-1.891 0.891-2.937 0.891-1.402-0.002-2.745-0.559-3.737-1.55s-1.549-2.335-1.55-3.737zM8.414 17.878c1.993-2.368 4.686-3.665 7.586-3.665s5.593 1.297 7.586 3.665c1.982 2.356 3.114 5.608 3.196 9.203-1.233 0.652-5.53 2.705-10.782 2.705-4.858 0-9.453-2.068-10.781-2.721 0.085-3.589 1.217-6.835 3.196-9.187z"></path>
</symbol>
<symbol id="icon-search" viewBox="0 0 32 32">
<path d="M14.092 0c-7.77 0-14.092 6.322-14.092 14.092s6.322 14.092 14.092 14.092c7.771 0 14.092-6.321 14.092-14.092s-6.321-14.092-14.092-14.092zM14.092 25.583c-6.336 0-11.491-5.155-11.491-11.491s5.155-11.491 11.491-11.491c6.336 0 11.491 5.155 11.491 11.491s-5.155 11.491-11.491 11.491z"></path>
<path d="M31.619 29.779l-7.458-7.458c-0.508-0.508-1.331-0.508-1.839 0s-0.508 1.332 0 1.839l7.458 7.458c0.254 0.254 0.587 0.381 0.92 0.381s0.665-0.127 0.92-0.381c0.508-0.508 0.508-1.332 0-1.839z"></path>
</symbol>
</defs>
</svg>
