<svg aria-hidden="true" style="position: absolute; width: 0; height: 0; overflow: hidden;" version="1.1" xmlns="http://www.w3.org/2000/svg" xmlns:xlink="http://www.w3.org/1999/xlink">
<defs>
<symbol id="icon-credit-card" viewBox="0 0 32 32">
<path d="M29 4h-26c-1.65 0-3 1.35-3 3v18c0 1.65 1.35 3 3 3h26c1.65 0 3-1.35 3-3v-18c0-1.65-1.35-3-3-3zM3 6h26c0.542 0 1 0.458 1 1v3h-28v-3c0-0.542 0.458-1 1-1zM29 26h-26c-0.542 0-1-0.458-1-1v-9h28v9c0 0.542-0.458 1-1 1zM4 20h2v4h-2zM8 20h2v4h-2zM12 20h2v4h-2z"></path>
</symbol>
<symbol id="icon-calculator" viewBox="0 0 32 32">
<path d="M12 2h-10c-1.1 0-2 0.9-2 2v10c0 1.1 0.9 2 2 2h10c1.1 0 2-0.9 2-2v-10c0-1.1-0.9-2-2-2zM12 10h-10v-2h10v2zM28 2h-10c-1.1 0-2 0.9-2 2v26c0 1.1 0.9 2 2 2h10c1.1 0 2-0.9 2-2v-26c0-1.1-0.9-2-2-2zM28 20h-10v-2h10v2zM28 14h-10v-2h10v2zM12 18h-10c-1.1 0-2 0.9-2 2v10c0 1.1 0.9 2 2 2h10c1.1 0 2-0.9 2-2v-10c0-1.1-0.9-2-2-2zM12 26h-4v4h-2v-4h-4v-2h4v-4h2v4h4v2z"></path>
</symbol>
<symbol id="icon-address-book" viewBox="0 0 32 32">
<path d="M6 0v32h24v-32h-24zM18 8.010c2.203 0 3.99 1.786 3.99 3.99s-1.786 3.99-3.99 3.99-3.99-1.786-3.99-3.99 1.786-3.99 3.99-3.99v0zM24 24h-12v-2c0-2.209 1.791-4 4-4v0h4c2.209 0 4 1.791 4 4v2z"></path>
<path d="M2 2h3v6h-3v-6z"></path>
<path d="M2 10h3v6h-3v-6z"></path>
<path d="M2 18h3v6h-3v-6z"></path>
<path d="M2 26h3v6h-3v-6z"></path>
</symbol>
</defs>
</svg>
